HIERARCHY
ROOT hip
{
  OFFSET 0 0 0
  CHANNELS 6 Xposition Yposition Zposition Zrotation Yrotation Xrotation
  JOINT abdomen
  {
    OFFSET 0 20.6881 -0.73152
    CHANNELS 3 Zrotation Xrotation Yrotation
    JOINT chest
    {
      OFFSET 0 11.7043 -0.48768
      CHANNELS 3 Zrotation Xrotation Yrotation
      JOINT neck
      {
        OFFSET 0 22.1894 -2.19456
        CHANNELS 3 Zrotation Xrotation Yrotation
        JOINT head
        {
          OFFSET -0.24384 7.07133 1.2192
          CHANNELS 3 Zrotation Xrotation Yrotation
          JOINT leftEye
          {
            OFFSET 4.14528 8.04674 8.04672
            CHANNELS 3 Zrotation Xrotation Yrotation
            End Site
            {
              OFFSET 1 0 0
            }
          }
          JOINT rightEye
          {
            OFFSET -3.6576 8.04674 8.04672
            CHANNELS 3 Zrotation Xrotation Yrotation
            End Site
            {
              OFFSET 1 0 0
            }
          }
        }
      }
      JOINT rCollar
      {
        OFFSET -2.68224 19.2634 -4.8768
        CHANNELS 3 Zrotation Xrotation Yrotation
        JOINT rShldr
        {
          OFFSET -8.77824 -1.95073 1.46304
          CHANNELS 3 Zrotation Xrotation Yrotation
          JOINT rForeArm
          {
            OFFSET -28.1742 -1.7115 0.48768
            CHANNELS 3 Zrotation Xrotation Yrotation
            JOINT rHand
            {
              OFFSET -22.5879 0.773209 7.07136
              CHANNELS 3 Zrotation Xrotation Yrotation
              JOINT rThumb1
              {
                OFFSET -1.2192 -0.487915 3.41376
                CHANNELS 3 Zrotation Xrotation Yrotation
                JOINT rThumb2
                {
                  OFFSET -3.37035 -0.52449 3.41376
                  CHANNELS 3 Zrotation Xrotation Yrotation
                  End Site
                  {
                    OFFSET -1.78271 -1.18214 1.43049
                  }
                }
              }
              JOINT rIndex1
              {
                OFFSET -7.75947 0.938293 5.60832
                CHANNELS 3 Zrotation Xrotation Yrotation
                JOINT rIndex2
                {
                  OFFSET -2.54057 -0.884171 1.56538
                  CHANNELS 3 Zrotation Xrotation Yrotation
                  End Site
                  {
                    OFFSET -1.62519 -0.234802 1.16502
                  }
                }
              }
              JOINT rMid1
              {
                OFFSET -8.24714 1.18213 3.41376
                CHANNELS 3 Zrotation Xrotation Yrotation
                JOINT rMid2
                {
                  OFFSET -3.10165 -0.590103 1.0647
                  CHANNELS 3 Zrotation Xrotation Yrotation
                  End Site
                  {
                    OFFSET -2.48547 -0.328903 0.83742
                  }
                }
              }
              JOINT rRing1
              {
                OFFSET -8.82822 0.546677 1.51678
                CHANNELS 3 Zrotation Xrotation Yrotation
                JOINT rRing2
                {
                  OFFSET -2.60934 -0.819778 -0.0198488
                  CHANNELS 3 Zrotation Xrotation Yrotation
                  End Site
                  {
                    OFFSET -2.33842 -0.294052 0.168128
                  }
                }
              }
              JOINT rPinky1
              {
                OFFSET -8.27202 -0.0477905 -0.4584
                CHANNELS 3 Zrotation Xrotation Yrotation
                JOINT rPinky2
                {
                  OFFSET -1.82734 -0.647385 -0.700984
                  CHANNELS 3 Zrotation Xrotation Yrotation
                  End Site
                  {
                    OFFSET -1.69225 -0.51767 -0.607171
                  }
                }
              }
            }
          }
        }
      }
      JOINT lCollar
      {
        OFFSET 2.68224 19.2634 -4.8768
        CHANNELS 3 Zrotation Xrotation Yrotation
        JOINT lShldr
        {
          OFFSET 8.77824 -1.95073 1.46304
          CHANNELS 3 Zrotation Xrotation Yrotation
          JOINT lForeArm
          {
            OFFSET 28.1742 -1.7115 0.48768
            CHANNELS 3 Zrotation Xrotation Yrotation
            JOINT lHand
            {
              OFFSET 22.5879 0.773209 7.07136
              CHANNELS 3 Zrotation Xrotation Yrotation
              JOINT lThumb1
              {
                OFFSET 1.2192 -0.487915 3.41376
                CHANNELS 3 Zrotation Xrotation Yrotation
                JOINT lThumb2
                {
                  OFFSET 3.37035 -0.52449 3.41376
                  CHANNELS 3 Zrotation Xrotation Yrotation
                  End Site
                  {
                    OFFSET 1.78271 -1.18214 1.43049
                  }
                }
              }
              JOINT lIndex1
              {
                OFFSET 7.75947 0.938293 5.60832
                CHANNELS 3 Zrotation Xrotation Yrotation
                JOINT lIndex2
                {
                  OFFSET 2.54057 -0.884171 1.56538
                  CHANNELS 3 Zrotation Xrotation Yrotation
                  End Site
                  {
                    OFFSET 1.62519 -0.234802 1.16502
                  }
                }
              }
              JOINT lMid1
              {
                OFFSET 8.24714 1.18213 3.41376
                CHANNELS 3 Zrotation Xrotation Yrotation
                JOINT lMid2
                {
                  OFFSET 3.10165 -0.590103 1.0647
                  CHANNELS 3 Zrotation Xrotation Yrotation
                  End Site
                  {
                    OFFSET 2.48547 -0.328903 0.83742
                  }
                }
              }
              JOINT lRing1
              {
                OFFSET 8.82822 0.546677 1.51678
                CHANNELS 3 Zrotation Xrotation Yrotation
                JOINT lRing2
                {
                  OFFSET 2.60934 -0.819778 -0.0198488
                  CHANNELS 3 Zrotation Xrotation Yrotation
                  End Site
                  {
                    OFFSET 2.33842 -0.294052 0.168128
                  }
                }
              }
              JOINT lPinky1
              {
                OFFSET 8.27202 -0.0477905 -0.4584
                CHANNELS 3 Zrotation Xrotation Yrotation
                JOINT lPinky2
                {
                  OFFSET 1.82734 -0.647385 -0.700984
                  CHANNELS 3 Zrotation Xrotation Yrotation
                  End Site
                  {
                    OFFSET 1.69225 -0.51767 -0.607171
                  }
                }
              }
            }
          }
        }
      }
    }
  }
  JOINT rButtock
  {
    OFFSET -8.77824 4.35084 1.2192
    CHANNELS 3 Zrotation Xrotation Yrotation
    JOINT rThigh
    {
      OFFSET 0 -1.70687 -2.19456
      CHANNELS 3 Zrotation Xrotation Yrotation
      JOINT rShin
      {
        OFFSET 0 -36.8199 0.73152
        CHANNELS 3 Zrotation Xrotation Yrotation
        JOINT rFoot
        {
          OFFSET 0.73152 -45.1104 -5.12064
          CHANNELS 3 Zrotation Xrotation Yrotation
          End Site
          {
            OFFSET -1.1221 -3.69964 12.103
          }
        }
      }
    }
  }
  JOINT lButtock
  {
    OFFSET 8.77824 4.35084 1.2192
    CHANNELS 3 Zrotation Xrotation Yrotation
    JOINT lThigh
    {
      OFFSET 0 -1.70687 -2.19456
      CHANNELS 3 Zrotation Xrotation Yrotation
      JOINT lShin
      {
        OFFSET 0 -36.8199 0.73152
        CHANNELS 3 Zrotation Xrotation Yrotation
        JOINT lFoot
        {
          OFFSET -0.73152 -45.1104 -5.12064
          CHANNELS 3 Zrotation Xrotation Yrotation
          End Site
          {
            OFFSET 1.1221 -3.69964 12.103
          }
        }
      }
    }
  }
}
MOTION
Frames:	4
Frame Time:	0.03333
-1.721215806901455 -1.4146704226732254 0.57791443541646 -0.6236587034200464 -1.321407350253277 0.00914610354632309 1.1917353550869387 0.8668617294443663 -0.3754930113551831 1.6724728837329972 1.5604174405400026 1.0269359104626363 -0.11790592710393355 0.3121252910001551 1.8687875682396788 -0.7097452337801234 -0.4931300531214003 0.6193588325332589 -0.4573639809760401 1.4785634930312177 -0.842797212090266 -1.0162723843426598 0.8912943299617069 -0.7196262229924576 -0.053070816644943695 1.2192128859527827 0.4353356604073969 -0.3980094770060706 -0.3542220680520444 1.5709567425944497 0.48928540367062356 -1.2647396185872084 0.8009296465819689 -0.2624101583006306 0.30362522729978003 1.6047036400664247 -0.3591413783996139 1.1114006977816586 0.22368447981053924 1.0244461997884609 -0.02220624899755397 0.471371364942414 1.3741052479076874 -0.9166091454598898 -0.6500745133959235 1.0144841554405857 -1.4759551078202133 0.6142023598750166 -0.5708280973244968 -1.2370321024454054 0.41100319153050585 0.9698931587224517 0.4592445775144679 -0.42493765789140453 0.9739733429778881 -0.3939109099368134 -0.7546501523958136 -0.5547407606732954 -0.42764486740196256 -1.3027433247376883 0.14948904199118987 -0.19431462635884472 0.5523088398028007 -1.4230718345628608 0.4432666839725453 0.25019975441620473 -0.3384432104914043 1.3613377033582295 0.43106841968215215 -0.669999989473849 -0.7466583508192226 1.0384120156504328 -0.2228969803435779 -1.6686042218984196 -0.007443091926315614 -1.26997655941161 1.1217426714021157 1.5564151631297867 1.243374039811468 0.16743096176503489 -1.615261404975972 -0.8157310934002096 1.267257076904887 1.0309076654649987 -0.7447676690795985 0.4091323867085835 -0.4856577194477006 -0.3076834802446783 0.7114048096658778 0.7020581226735385 0.7500274483490372 1.3552943733249432 -1.9700139599470297 1.2336036676471764 -1.5817368088171395 -0.4748741314087198 -0.3025118264237886 1.659268847406893 1.045715729028998 2.038508377604387 -0.7402792742995481 1.153150976135302 2.154767375344701 -0.7828037119069301 -0.6724901270348476 0.5930596693818008 1.0390650457681097 -0.9504735435299303 -1.9331627414972836 1.2490751133343132 -1.705822456294348 0.7615286864985453 -1.0884981129992537 0.3864476742885315 -0.7171277077775552 -0.6170930773586658 -0.5017483644717812 1.7749642478189755 0.4649998656638499 0.7541018696323614 1.3665907591602038 -1.5897492610437993 -0.17146357482011917 -1.1260735449444328 -1.1461423482732227 0.6396571408903318 -1.4087583193834528 -0.9457498273886318 1.348851690668623 1.709193261371455 1.8094193505305163 -1.6103043951858353
-3.3771656453609467 -1.3281549327075481 1.2107599526643753 -0.6793721829538701 -1.3667218134149035 -0.20282812365393504 1.1854456046350033 0.7717912058090481 -0.38361669427969347 1.8874109327853648 1.479921313293875 1.1647502381715704 0.2211193702512292 0.3841729278102264 1.8946993849600031 -0.727078706428882 -0.3952274022189069 0.41266081974512975 -0.4901722076848145 1.3383322388514514 -0.6072422370282149 -0.9598167087059789 0.8631319125490104 -0.8420860720037914 -0.019593198046974937 0.969684517787649 0.3162223639655314 -0.2669541284089667 -0.5391865523033251 1.5756709605039336 0.7194052557006371 -1.2733409611863702 0.7190836498402647 -0.1408188372113727 0.2754199878026388 1.8651413144399498 -0.5656834707755963 1.0211787013225504 0.1733939436940808 0.9157488617895855 -0.05062592908719647 0.41168410269381794 1.6273380332022007 -1.0651930806643473 -0.7013118711458618 1.1617737697973258 -1.4043195501965908 0.5593018329349829 -0.6379726454862774 -1.439215413553009 0.3845642496249005 0.9412984650404875 0.20093786880113404 -0.40752843951196766 0.9717821329147834 -0.3257672865263598 -0.7321453727717091 -0.53263634752843 -0.26389078856621595 -1.2383084940465516 0.1676599998858551 -0.2616191636978049 0.37872934708300554 -1.452176231111637 0.37550485746452483 0.2992633244215071 -0.5347486368901094 1.3416176665639332 0.3874483770432177 -0.5174789304605553 -0.8172582810099421 1.0158411219295969 -0.2810710355258988 -1.814615203498192 -0.07536729550968257 -1.2902458928255633 1.1241750725202866 1.6624946176858433 1.0623264289253516 0.10820062849974212 -2.003420842064385 -0.9316577597487203 1.2712654374523324 1.091527942226389 -0.776283762735624 0.48025589358786674 -0.3327435510311609 -0.27384450862104015 0.8869615887895387 0.7800766521590967 0.7242065585220387 1.5176387918294492 -2.120741934220636 1.2017914212576073 -1.4851919781773035 -0.2135532281981476 -0.4718355510017104 1.7027701087872928 0.8817142959596764 2.213363354790829 -0.6155807774268898 1.1278718056868502 2.39096321424997 -0.7882504676048979 -0.5939359079471194 0.5040321556146513 0.8856570226580663 -0.9932542199528936 -2.0323560847094977 1.342466957898542 -1.804472372580723 0.8630106233303899 -1.2864335800516382 0.4855936864242317 -0.846629535184025 -0.6587993863695272 -0.7351580731650665 1.8333181824363909 0.3601102514055508 0.6803863059630583 1.3005472054761176 -1.5108457418130483 -0.2952741204202494 -1.090868828971483 -1.101643985995707 0.7080560426210146 -1.61532394389556 -0.8381930242594428 1.3523985865602695 1.728541266299397 1.9497093016484626 -1.808295997855461
-4.991437308490276 -1.252633798867464 1.9160551950335503 -0.7289660797956269 -1.426093873105474 -0.2677269269609566 1.2288258436010466 0.652302435725817 -0.3673733038142131 2.002289591983102 1.4369296480585818 1.2322307996240038 0.4227086683444532 0.3934786870283985 1.9055472194658643 -0.7587247337616965 -0.2785442123785379 0.27920201829254826 -0.5278032416387056 1.289069179297617 -0.43010672371092906 -0.9469171494064693 0.8400573457377389 -0.9336792822996326 -0.05487772851563602 0.8567052381485574 0.23191469767784592 -0.18687949853982305 -0.6968506370399327 1.5457745821765532 0.885598058915622 -1.2551806621220698 0.6855852538602016 -0.03360607818119657 0.2838495351359188 1.9561981948033864 -0.7590646423946104 0.9964429577999375 0.1192533153198508 0.855728307653834 -0.11066836117263318 0.37355110319678386 1.7927453646626343 -1.154083617122126 -0.7264639894035808 1.2435155527933344 -1.3719232159112797 0.4437039761619848 -0.7106011952213436 -1.500265138458464 0.3518062621591227 0.9548076187234208 0.006719412039411607 -0.3685382245936705 0.9783248138094209 -0.29726872242087826 -0.7117829780303144 -0.5238480818615922 -0.11084954127851702 -1.1639645529736073 0.19718063776760555 -0.292526810228744 0.228652215132107 -1.4166380098081204 0.32458264891175925 0.3460559899299124 -0.6393177658659468 1.3049021981239413 0.36879651780208805 -0.40619858033622497 -0.8171641524654428 0.9642479006517304 -0.318305731744944 -1.8658621128407977 -0.1706664570594243 -1.3123188230672231 1.100604303137984 1.7480313178177342 0.9320268034073126 0.08579229861723767 -2.2495257913514615 -1.0046183740713255 1.265090946442641 1.1194724872767328 -0.786210268755474 0.5413979327688226 -0.27792397250496254 -0.24845325370109134 1.0147665410740836 0.8785158997982593 0.7052226346933701 1.5815077840365326 -2.2037759036302464 1.1798745181498 -1.441549523980155 -0.08526434633873683 -0.5325171393830722 1.7416138214839785 0.8742826766167323 2.280221515255145 -0.5966813771892 1.1778137220111602 2.5255727958559926 -0.7920105934646957 -0.5461854151293255 0.4892690218887861 0.8202500105881135 -1.060788142258218 -2.0866189494574874 1.4083856471868639 -1.9112969580865455 0.9376128309313252 -1.3769450057768258 0.5990743979979375 -0.9561022597362555 -0.712260290859422 -0.8918608621368477 1.911371449837181 0.2841731687087011 0.6888867431894037 1.2259794689861496 -1.4558750987123164 -0.37205982744104676 -1.028149976587606 -1.0709222219958128 0.7489688223885381 -1.6864097780127023 -0.8322299489489042 1.3465684864951346 1.716944352140656 1.9901775321505535 -1.8747759365944874
-6.573912128806114 -1.1863449588418007 2.68852561712265 -0.7638819001110263 -1.4818846725151364 -0.2705603348886012 1.2827515744804725 0.5283243637280364 -0.34659560155476987 2.055225265597993 1.4221020544224248 1.2530123972257081 0.5522782106732413 0.3531851866390983 1.919118591903268 -0.7886041966987106 -0.15804385392663084 0.20693690932652084 -0.560295038489838 1.287887983458028 -0.3180421024512373 -0.9538725231373637 0.8245230409658969 -0.9765042482304952 -0.12038544585520686 0.8292550280393934 0.16188434123088205 -0.13345624013164273 -0.8424474850604202 1.486992266632131 1.0092699463395158 -1.2150790206793383 0.6793246917947974 0.04218356847911609 0.3117323950403207 1.9704758514896517 -0.9340786349226667 1.0218284230673478 0.05759516996973584 0.8237733209827822 -0.1840748654520998 0.3535376884332945 1.885883958619044 -1.216955294988682 -0.7381910506825224 1.2793621998265594 -1.3408316612008528 0.3176603855900835 -0.7651665626443704 -1.514204487337402 0.3088097410862164 0.971599211911074 -0.1489060213125058 -0.3529886586179018 0.9792904318033315 -0.2938248663361638 -0.6953468748446192 -0.5110914762869768 0.013824142797547135 -1.0821114592384689 0.24053295566737395 -0.28672995397496015 0.10218304507797576 -1.3742399307003834 0.2676676964142479 0.38705006495681493 -0.6862294260762984 1.2772259514419322 0.3612725308227901 -0.3390598751878359 -0.7819052218659561 0.908705656094833 -0.338395746012758 -1.8605465181192353 -0.25209323760060565 -1.313671413966297 1.0608455585359282 1.8100551984535622 0.8353768518872818 0.08219975251594318 -2.4002388245862587 -1.058615074885096 1.2503899247495405 1.136892457868027 -0.7831440474266672 0.5919289529090463 -0.2862134209189779 -0.23241271451787504 1.1252224393408257 0.9784366581570799 0.6724058168872802 1.595239025589197 -2.2447788098783024 1.1558031172456769 -1.439094818025476 -0.028626603471992817 -0.5305152536260238 1.762981214528717 0.9169011360469078 2.3090303994006125 -0.6509217770181225 1.245528964494607 2.599834667937191 -0.7981072843508726 -0.5119121128435833 0.5115943489646191 0.7881608747328944 -1.1224902569511148 -2.1227361360148684 1.4665614632773303 -2.0016836261376745 0.9860526392467615 -1.4158945864056467 0.697711400957913 -1.0537329837324179 -0.7665090149813953 -1.0107294723877829 1.9760354120306305 0.22455954443709422 0.7278287999379669 1.1587977283099042 -1.4206866044386453 -0.40703434469462596 -0.9612639617580812 -1.051886484778987 0.7800625648939337 -1.686381176595553 -0.8748235955824856 1.3313002389358057 1.6699683387417181 1.9886896181285485 -1.876578039318313
